<svg xmlns="http://www.w3.org/2000/svg" width="120" height="168" viewBox="0 0 120 168"><rect width="120" height="168" rx="8" fill="#00091a"/><clipPath id="sgcS10"><rect width="120" height="168" rx="8"/></clipPath><g clip-path="url(#sgcS10)"><rect x="0" y="0" width="120" height="56" fill="#001a60" opacity="0.28"/><rect x="0" y="56" width="120" height="56" fill="#001a60" opacity="0.14"/><rect x="0" y="112" width="120" height="56" fill="#001a60" opacity="0.22"/><line x1="40" y1="0" x2="40" y2="168" stroke="#0077dd" stroke-width="1.5" opacity="0.25"/><line x1="80" y1="0" x2="80" y2="168" stroke="#0077dd" stroke-width="1.5" opacity="0.25"/><line x1="0" y1="56" x2="120" y2="56" stroke="#0077dd" stroke-width="1.5" opacity="0.25"/><line x1="0" y1="112" x2="120" y2="112" stroke="#0077dd" stroke-width="1.5" opacity="0.25"/></g><rect width="120" height="168" rx="8" fill="none" stroke="#0077dd" stroke-width="2"/><rect x="4" y="4" width="112" height="160" rx="6" fill="none" stroke="#0077dd" stroke-width="0.5" opacity="0.4"/><text x="10" y="18" text-anchor="middle" font-size="14" font-weight="bold" fill="#ccddff" font-family="Georgia,serif">10</text><text x="10" y="30" text-anchor="middle" font-size="11" fill="#ccddff" font-family="Georgia,serif">♠</text><text x="110" y="150" text-anchor="middle" font-size="14" font-weight="bold" fill="#ccddff" font-family="Georgia,serif" transform="rotate(180 110 144)">10</text><text x="110" y="138" text-anchor="middle" font-size="11" fill="#ccddff" font-family="Georgia,serif" transform="rotate(180 110 144)">♠</text><text x="40.8" y="44.8" text-anchor="middle" dominant-baseline="central" font-size="17" fill="#55aaff" font-family="serif">♠</text><text x="79.2" y="44.8" text-anchor="middle" dominant-baseline="central" font-size="17" fill="#55aaff" font-family="serif">♠</text><text x="60.0" y="61.6" text-anchor="middle" dominant-baseline="central" font-size="17" fill="#55aaff" font-family="serif">♠</text><text x="40.8" y="78.4" text-anchor="middle" dominant-baseline="central" font-size="17" fill="#55aaff" font-family="serif">♠</text><text x="79.2" y="78.4" text-anchor="middle" dominant-baseline="central" font-size="17" fill="#55aaff" font-family="serif">♠</text><text x="40.8" y="89.6" text-anchor="middle" dominant-baseline="central" font-size="17" fill="#55aaff" font-family="serif" transform="rotate(180 40.8 89.6)">♠</text><text x="79.2" y="89.6" text-anchor="middle" dominant-baseline="central" font-size="17" fill="#55aaff" font-family="serif" transform="rotate(180 79.2 89.6)">♠</text><text x="60.0" y="106.4" text-anchor="middle" dominant-baseline="central" font-size="17" fill="#55aaff" font-family="serif" transform="rotate(180 60.0 106.4)">♠</text><text x="40.8" y="123.2" text-anchor="middle" dominant-baseline="central" font-size="17" fill="#55aaff" font-family="serif" transform="rotate(180 40.8 123.2)">♠</text><text x="79.2" y="123.2" text-anchor="middle" dominant-baseline="central" font-size="17" fill="#55aaff" font-family="serif" transform="rotate(180 79.2 123.2)">♠</text></svg>